<svg width="36" height="36" viewBox="0 0 36 36" fill="none" xmlns="http://www.w3.org/2000/svg">
<path d="M16 0.5H20C23.7854 0.5 26.5741 0.501062 28.7116 0.788435C30.8346 1.07387 32.2401 1.63351 33.3033 2.6967C34.3665 3.75989 34.9261 5.16538 35.2116 7.28845C35.4989 9.4259 35.5 12.2146 35.5 16V20C35.5 23.7854 35.4989 26.5741 35.2116 28.7116C34.9261 30.8346 34.3665 32.2401 33.3033 33.3033C32.2401 34.3665 30.8346 34.9261 28.7116 35.2116C26.5741 35.4989 23.7854 35.5 20 35.5H16C12.2146 35.5 9.4259 35.4989 7.28845 35.2116C5.16538 34.9261 3.75989 34.3665 2.6967 33.3033C1.63351 32.2401 1.07387 30.8346 0.788435 28.7116C0.501062 26.5741 0.5 23.7854 0.5 20V16C0.5 12.2146 0.501062 9.4259 0.788435 7.28845C1.07387 5.16538 1.63351 3.75989 2.6967 2.6967C3.75989 1.63351 5.16538 1.07387 7.28845 0.788435C9.4259 0.501062 12.2146 0.5 16 0.5Z" fill="#F2F2F2"/>
<path fill-rule="evenodd" clip-rule="evenodd" d="M17.2212 11.75C14.1995 11.75 11.75 14.1995 11.75 17.2212C11.75 20.2428 14.1995 22.6923 17.2212 22.6923C18.7307 22.6923 20.0966 22.0816 21.0871 21.0926C22.0793 20.1018 22.6923 18.7335 22.6923 17.2212C22.6923 14.1995 20.2428 11.75 17.2212 11.75ZM10.75 17.2212C10.75 13.6472 13.6472 10.75 17.2212 10.75C20.7951 10.75 23.6923 13.6472 23.6923 17.2212C23.6923 18.8293 23.1051 20.3011 22.1344 21.4327L25.1032 24.3961C25.2987 24.5912 25.299 24.9078 25.1039 25.1032C24.9088 25.2987 24.5922 25.299 24.3968 25.1039L21.4268 22.1394C20.296 23.1072 18.8265 23.6923 17.2212 23.6923C13.6472 23.6923 10.75 20.7951 10.75 17.2212Z" fill="#999CA0"/>
<path d="M16 0.5H20C23.7854 0.5 26.5741 0.501062 28.7116 0.788435C30.8346 1.07387 32.2401 1.63351 33.3033 2.6967C34.3665 3.75989 34.9261 5.16538 35.2116 7.28845C35.4989 9.4259 35.5 12.2146 35.5 16V20C35.5 23.7854 35.4989 26.5741 35.2116 28.7116C34.9261 30.8346 34.3665 32.2401 33.3033 33.3033C32.2401 34.3665 30.8346 34.9261 28.7116 35.2116C26.5741 35.4989 23.7854 35.5 20 35.5H16C12.2146 35.5 9.4259 35.4989 7.28845 35.2116C5.16538 34.9261 3.75989 34.3665 2.6967 33.3033C1.63351 32.2401 1.07387 30.8346 0.788435 28.7116C0.501062 26.5741 0.5 23.7854 0.5 20V16C0.5 12.2146 0.501062 9.4259 0.788435 7.28845C1.07387 5.16538 1.63351 3.75989 2.6967 2.6967C3.75989 1.63351 5.16538 1.07387 7.28845 0.788435C9.4259 0.501062 12.2146 0.5 16 0.5Z" stroke="#EBEBEB"/>
<path d="M16 0.5H20C23.7854 0.5 26.5741 0.501062 28.7116 0.788435C30.8346 1.07387 32.2401 1.63351 33.3033 2.6967C34.3665 3.75989 34.9261 5.16538 35.2116 7.28845C35.4989 9.4259 35.5 12.2146 35.5 16V20C35.5 23.7854 35.4989 26.5741 35.2116 28.7116C34.9261 30.8346 34.3665 32.2401 33.3033 33.3033C32.2401 34.3665 30.8346 34.9261 28.7116 35.2116C26.5741 35.4989 23.7854 35.5 20 35.5H16C12.2146 35.5 9.4259 35.4989 7.28845 35.2116C5.16538 34.9261 3.75989 34.3665 2.6967 33.3033C1.63351 32.2401 1.07387 30.8346 0.788435 28.7116C0.501062 26.5741 0.5 23.7854 0.5 20V16C0.5 12.2146 0.501062 9.4259 0.788435 7.28845C1.07387 5.16538 1.63351 3.75989 2.6967 2.6967C3.75989 1.63351 5.16538 1.07387 7.28845 0.788435C9.4259 0.501062 12.2146 0.5 16 0.5Z" stroke="black" stroke-opacity="0.08"/>
</svg>
